<svg viewBox="-168.09623430962344 -254.9991325673913 336.1924686192469 354.9991325673913" xmlns="http://www.w3.org/2000/svg" xmlns:xlink="http://www.w3.org/1999/xlink" version="1.1" class="jsx-2263963463 artboard-inner" style="width: 123.113px; height: 130px; max-height: 100%;"><g transform="translate(-168.09623430962344 100) scale(1.9370835270416857)" fill="#FFFFFF"><g id="line1"><path d="M70.920-50.400L56.160-50.400L49.032-20.736L39.672-50.400L31.032-50.400L31.032-50.400L21.888-20.736L14.544-50.400L0-50.400L15.120 0L15.048 0L15.120 0L28.584 0L28.656 0L28.656 0L35.424-22.752L42.264 0L42.264 0L42.264 0L55.800 0L55.800 0L55.800 0L70.920-50.400Z"></path><path d="M86.652 0L86.652-33.552L74.556-33.552L74.556 0L86.652 0ZM73.332-44.352C73.332-40.320 76.572-37.080 80.604-37.080C84.636-37.080 87.876-40.320 87.876-44.352C87.876-48.384 84.636-51.624 80.604-51.624C76.572-51.624 73.332-48.384 73.332-44.352Z"></path><path d="M123.408-50.400L123.408-32.184L102.528-50.328L102.528-50.400L90.288-50.400L90.288 0L102.528 0L102.528-18.360L123.408-0.216L123.408 0L135.720 0L135.720-50.400L123.408-50.400ZM123.408-13.176L102.528-31.320L102.528-37.368L123.408-19.224L123.408-13.176Z"></path><path d="M161.532-28.728C166.932-32.904 170.316-39.240 170.316-47.016L170.316-50.400L158.076-50.400L158.076-47.016C158.076-41.544 154.980-36.360 150.372-33.768L150.372-50.400L138.132-50.400L138.132 0L138.132 0L150.372 0L150.372-21.456C156.636-20.088 161.316-14.544 161.316-7.848L161.316 0L173.556 0L173.556-7.848C173.556-17.136 168.804-24.552 161.532-28.728Z"></path></g></g><g transform="translate(-122.31118129623776 -264.80829108475166) scale(4.8923492719847115)" id="logomark"><g fill="#FFFFFF"><path d="M20.535 22.249V12.972h-8.022l.59 1.632L26.037 3.956l-1.232-.054L35.91 14.889l.649-1.575h-7.104V34.615h1.846V14.236l-.924.921h8.424l-1.596-1.578-11.103-10.99-.59-.584-.644.529-12.94 10.647-1.985 1.634h9.672l-.923-.924v8.358z"></path><path d="M12.627 47.666V27.288H7.821l9.559-9.56 9.677 9.673h-5.495v20.38z"></path><path d="M27.75 47.882v-9.053h-4.807l9.563-9.559 9.674 9.67h-5.494v9.055z"></path></g></g></svg>